<svg height="4974" width="720" xmlns="http://www.w3.org/2000/svg">
<rect height="4974" fill="#555" width="720"></rect>
<text fill="#7f7" font-family="Courier New" font-size="12" xml:space="preserve">
<tspan x="10" y="26">└─┬ xo@0.18.1 </tspan>
<tspan x="10" y="42">  ├── arrify@1.0.1 </tspan>
<tspan x="10" y="58">  ├─┬ debug@2.6.3 </tspan>
<tspan x="10" y="74">  │ └── ms@0.7.2 </tspan>
<tspan x="10" y="90">  ├─┬ deep-assign@1.0.0 </tspan>
<tspan x="10" y="106">  │ └── is-obj@1.0.1 </tspan>
<tspan x="10" y="122">  ├─┬ eslint@3.19.0 </tspan>
<tspan x="10" y="138">  │ ├─┬ babel-code-frame@6.22.0 </tspan>
<tspan x="10" y="154">  │ │ └── js-tokens@3.0.1 </tspan>
<tspan x="10" y="170">  │ ├─┬ chalk@1.1.3 </tspan>
<tspan x="10" y="186">  │ │ ├── ansi-styles@2.2.1 </tspan>
<tspan x="10" y="202">  │ │ ├── escape-string-regexp@1.0.5 </tspan>
<tspan x="10" y="218">  │ │ ├── has-ansi@2.0.0 </tspan>
<tspan x="10" y="234">  │ │ ├── strip-ansi@3.0.1 </tspan>
<tspan x="10" y="250">  │ │ └── supports-color@2.0.0 </tspan>
<tspan x="10" y="266">  │ ├─┬ concat-stream@1.6.0 </tspan>
<tspan x="10" y="282">  │ │ ├── inherits@2.0.3 </tspan>
<tspan x="10" y="298">  │ │ ├─┬ readable-stream@2.2.6 </tspan>
<tspan x="10" y="314">  │ │ │ ├── buffer-shims@1.0.0 </tspan>
<tspan x="10" y="330">  │ │ │ ├── core-util-is@1.0.2 </tspan>
<tspan x="10" y="346">  │ │ │ ├── process-nextick-args@1.0.7 </tspan>
<tspan x="10" y="362">  │ │ │ ├── string_decoder@0.10.31 </tspan>
<tspan x="10" y="378">  │ │ │ └── util-deprecate@1.0.2 </tspan>
<tspan x="10" y="394">  │ │ └── typedarray@0.0.6 </tspan>
<tspan x="10" y="410">  │ ├─┬ doctrine@2.0.0 </tspan>
<tspan x="10" y="426">  │ │ └── isarray@1.0.0 </tspan>
<tspan x="10" y="442">  │ ├─┬ escope@3.6.0 </tspan>
<tspan x="10" y="458">  │ │ ├─┬ es6-map@0.1.5 </tspan>
<tspan x="10" y="474">  │ │ │ ├── d@1.0.0 </tspan>
<tspan x="10" y="490">  │ │ │ ├── es5-ext@0.10.15 </tspan>
<tspan x="10" y="506">  │ │ │ ├── es6-iterator@2.0.1 </tspan>
<tspan x="10" y="522">  │ │ │ ├── es6-set@0.1.5 </tspan>
<tspan x="10" y="538">  │ │ │ ├── es6-symbol@3.1.1 </tspan>
<tspan x="10" y="554">  │ │ │ └── event-emitter@0.3.5 </tspan>
<tspan x="10" y="570">  │ │ ├── es6-weak-map@2.0.2 </tspan>
<tspan x="10" y="586">  │ │ └─┬ esrecurse@4.1.0 </tspan>
<tspan x="10" y="602">  │ │   └── estraverse@4.1.1 </tspan>
<tspan x="10" y="618">  │ ├─┬ espree@3.4.1 </tspan>
<tspan x="10" y="634">  │ │ ├── acorn@5.0.3 </tspan>
<tspan x="10" y="650">  │ │ └─┬ acorn-jsx@3.0.1 </tspan>
<tspan x="10" y="666">  │ │   └── acorn@3.3.0 </tspan>
<tspan x="10" y="682">  │ ├── esquery@1.0.0 </tspan>
<tspan x="10" y="698">  │ ├── estraverse@4.2.0 </tspan>
<tspan x="10" y="714">  │ ├── esutils@2.0.2 </tspan>
<tspan x="10" y="730">  │ ├─┬ file-entry-cache@2.0.0 </tspan>
<tspan x="10" y="746">  │ │ └─┬ flat-cache@1.2.2 </tspan>
<tspan x="10" y="762">  │ │   ├── circular-json@0.3.1 </tspan>
<tspan x="10" y="778">  │ │   ├─┬ del@2.2.2 </tspan>
<tspan x="10" y="794">  │ │   │ ├── globby@5.0.0 </tspan>
<tspan x="10" y="810">  │ │   │ ├── is-path-cwd@1.0.0 </tspan>
<tspan x="10" y="826">  │ │   │ ├─┬ is-path-in-cwd@1.0.0 </tspan>
<tspan x="10" y="842">  │ │   │ │ └── is-path-inside@1.0.0 </tspan>
<tspan x="10" y="858">  │ │   │ └── rimraf@2.6.1 </tspan>
<tspan x="10" y="874">  │ │   └── write@0.2.1 </tspan>
<tspan x="10" y="890">  │ ├─┬ glob@7.1.1 </tspan>
<tspan x="10" y="906">  │ │ ├── fs.realpath@1.0.0 </tspan>
<tspan x="10" y="922">  │ │ ├─┬ inflight@1.0.6 </tspan>
<tspan x="10" y="938">  │ │ │ └── wrappy@1.0.2 </tspan>
<tspan x="10" y="954">  │ │ ├── once@1.4.0 </tspan>
<tspan x="10" y="970">  │ │ └── path-is-absolute@1.0.1 </tspan>
<tspan x="10" y="986">  │ ├── globals@9.17.0 </tspan>
<tspan x="10" y="1002">  │ ├── ignore@3.2.6 </tspan>
<tspan x="10" y="1018">  │ ├── imurmurhash@0.1.4 </tspan>
<tspan x="10" y="1034">  │ ├─┬ inquirer@0.12.0 </tspan>
<tspan x="10" y="1050">  │ │ ├── ansi-regex@2.1.1 </tspan>
<tspan x="10" y="1066">  │ │ ├─┬ cli-cursor@1.0.2 </tspan>
<tspan x="10" y="1082">  │ │ │ └─┬ restore-cursor@1.0.1 </tspan>
<tspan x="10" y="1098">  │ │ │   ├── exit-hook@1.1.1 </tspan>
<tspan x="10" y="1114">  │ │ │   └── onetime@1.1.0 </tspan>
<tspan x="10" y="1130">  │ │ ├── cli-width@2.1.0 </tspan>
<tspan x="10" y="1146">  │ │ ├── figures@1.7.0 </tspan>
<tspan x="10" y="1162">  │ │ ├─┬ readline2@1.0.1 </tspan>
<tspan x="10" y="1178">  │ │ │ ├── code-point-at@1.1.0 </tspan>
<tspan x="10" y="1194">  │ │ │ ├─┬ is-fullwidth-code-point@1.0.0 </tspan>
<tspan x="10" y="1210">  │ │ │ │ └── number-is-nan@1.0.1 </tspan>
<tspan x="10" y="1226">  │ │ │ └── mute-stream@0.0.5 </tspan>
<tspan x="10" y="1242">  │ │ ├── run-async@0.1.0 </tspan>
<tspan x="10" y="1258">  │ │ ├── rx-lite@3.1.2 </tspan>
<tspan x="10" y="1274">  │ │ ├── string-width@1.0.2 </tspan>
<tspan x="10" y="1290">  │ │ └── through@2.3.8 </tspan>
<tspan x="10" y="1306">  │ ├─┬ is-my-json-valid@2.16.0 </tspan>
<tspan x="10" y="1322">  │ │ ├── generate-function@2.0.0 </tspan>
<tspan x="10" y="1338">  │ │ ├─┬ generate-object-property@1.2.0 </tspan>
<tspan x="10" y="1354">  │ │ │ └── is-property@1.0.2 </tspan>
<tspan x="10" y="1370">  │ │ ├── jsonpointer@4.0.1 </tspan>
<tspan x="10" y="1386">  │ │ └── xtend@4.0.1 </tspan>
<tspan x="10" y="1402">  │ ├─┬ is-resolvable@1.0.0 </tspan>
<tspan x="10" y="1418">  │ │ └── tryit@1.0.3 </tspan>
<tspan x="10" y="1434">  │ ├─┬ js-yaml@3.8.2 </tspan>
<tspan x="10" y="1450">  │ │ ├─┬ argparse@1.0.9 </tspan>
<tspan x="10" y="1466">  │ │ │ └── sprintf-js@1.0.3 </tspan>
<tspan x="10" y="1482">  │ │ └── esprima@3.1.3 </tspan>
<tspan x="10" y="1498">  │ ├─┬ json-stable-stringify@1.0.1 </tspan>
<tspan x="10" y="1514">  │ │ └── jsonify@0.0.0 </tspan>
<tspan x="10" y="1530">  │ ├─┬ levn@0.3.0 </tspan>
<tspan x="10" y="1546">  │ │ ├── prelude-ls@1.1.2 </tspan>
<tspan x="10" y="1562">  │ │ └── type-check@0.3.2 </tspan>
<tspan x="10" y="1578">  │ ├── lodash@4.17.4 </tspan>
<tspan x="10" y="1594">  │ ├─┬ mkdirp@0.5.1 </tspan>
<tspan x="10" y="1610">  │ │ └── minimist@0.0.8 </tspan>
<tspan x="10" y="1626">  │ ├── natural-compare@1.4.0 </tspan>
<tspan x="10" y="1642">  │ ├─┬ optionator@0.8.2 </tspan>
<tspan x="10" y="1658">  │ │ ├── deep-is@0.1.3 </tspan>
<tspan x="10" y="1674">  │ │ ├── fast-levenshtein@2.0.6 </tspan>
<tspan x="10" y="1690">  │ │ └── wordwrap@1.0.0 </tspan>
<tspan x="10" y="1706">  │ ├── path-is-inside@1.0.2 </tspan>
<tspan x="10" y="1722">  │ ├── pluralize@1.2.1 </tspan>
<tspan x="10" y="1738">  │ ├── progress@1.1.8 </tspan>
<tspan x="10" y="1754">  │ ├─┬ require-uncached@1.0.3 </tspan>
<tspan x="10" y="1770">  │ │ ├─┬ caller-path@0.1.0 </tspan>
<tspan x="10" y="1786">  │ │ │ └── callsites@0.2.0 </tspan>
<tspan x="10" y="1802">  │ │ └── resolve-from@1.0.1 </tspan>
<tspan x="10" y="1818">  │ ├─┬ shelljs@0.7.7 </tspan>
<tspan x="10" y="1834">  │ │ ├── interpret@1.0.2 </tspan>
<tspan x="10" y="1850">  │ │ └── rechoir@0.6.2 </tspan>
<tspan x="10" y="1866">  │ ├── strip-bom@3.0.0 </tspan>
<tspan x="10" y="1882">  │ ├── strip-json-comments@2.0.1 </tspan>
<tspan x="10" y="1898">  │ ├─┬ table@3.8.3 </tspan>
<tspan x="10" y="1914">  │ │ ├─┬ ajv@4.11.5 </tspan>
<tspan x="10" y="1930">  │ │ │ └── co@4.6.0 </tspan>
<tspan x="10" y="1946">  │ │ ├── ajv-keywords@1.5.1 </tspan>
<tspan x="10" y="1962">  │ │ ├── slice-ansi@0.0.4 </tspan>
<tspan x="10" y="1978">  │ │ └─┬ string-width@2.0.0 </tspan>
<tspan x="10" y="1994">  │ │   └── is-fullwidth-code-point@2.0.0 </tspan>
<tspan x="10" y="2010">  │ ├── text-table@0.2.0 </tspan>
<tspan x="10" y="2026">  │ └─┬ user-home@2.0.0 </tspan>
<tspan x="10" y="2042">  │   └── os-homedir@1.0.2 </tspan>
<tspan x="10" y="2058">  ├── eslint-config-xo@0.18.1 </tspan>
<tspan x="10" y="2074">  ├─┬ eslint-formatter-pretty@1.1.0 </tspan>
<tspan x="10" y="2090">  │ ├── ansi-escapes@1.4.0 </tspan>
<tspan x="10" y="2106">  │ ├── log-symbols@1.0.2 </tspan>
<tspan x="10" y="2122">  │ ├─┬ plur@2.1.2 </tspan>
<tspan x="10" y="2138">  │ │ └── irregular-plurals@1.2.0 </tspan>
<tspan x="10" y="2154">  │ └─┬ string-width@2.0.0 </tspan>
<tspan x="10" y="2170">  │   └── is-fullwidth-code-point@2.0.0 </tspan>
<tspan x="10" y="2186">  ├─┬ eslint-plugin-ava@4.2.0 </tspan>
<tspan x="10" y="2202">  │ ├─┬ deep-strict-equal@0.2.0 </tspan>
<tspan x="10" y="2218">  │ │ └─┬ core-assert@0.2.1 </tspan>
<tspan x="10" y="2234">  │ │   ├── buf-compare@1.0.1 </tspan>
<tspan x="10" y="2250">  │ │   └── is-error@2.2.1 </tspan>
<tspan x="10" y="2266">  │ ├── enhance-visitors@1.0.0 </tspan>
<tspan x="10" y="2282">  │ ├─┬ espurify@1.7.0 </tspan>
<tspan x="10" y="2298">  │ │ └── core-js@2.4.1 </tspan>
<tspan x="10" y="2314">  │ ├─┬ pkg-up@1.0.0 </tspan>
<tspan x="10" y="2330">  │ │ └─┬ find-up@1.1.2 </tspan>
<tspan x="10" y="2346">  │ │   └── path-exists@2.1.0 </tspan>
<tspan x="10" y="2362">  │ └── req-all@1.0.0 </tspan>
<tspan x="10" y="2378">  ├─┬ eslint-plugin-import@2.2.0 </tspan>
<tspan x="10" y="2394">  │ ├── builtin-modules@1.1.1 </tspan>
<tspan x="10" y="2410">  │ ├── contains-path@0.1.0 </tspan>
<tspan x="10" y="2426">  │ ├── doctrine@1.5.0 </tspan>
<tspan x="10" y="2442">  │ ├─┬ eslint-import-resolver-node@0.2.3 </tspan>
<tspan x="10" y="2458">  │ │ └─┬ resolve@1.3.2 </tspan>
<tspan x="10" y="2474">  │ │   └── path-parse@1.0.5 </tspan>
<tspan x="10" y="2490">  │ ├─┬ eslint-module-utils@2.0.0 </tspan>
<tspan x="10" y="2506">  │ │ ├─┬ debug@2.2.0 </tspan>
<tspan x="10" y="2522">  │ │ │ └── ms@0.7.1 </tspan>
<tspan x="10" y="2538">  │ │ └── pkg-dir@1.0.0 </tspan>
<tspan x="10" y="2554">  │ ├─┬ has@1.0.1 </tspan>
<tspan x="10" y="2570">  │ │ └── function-bind@1.1.0 </tspan>
<tspan x="10" y="2586">  │ ├── lodash.cond@4.5.2 </tspan>
<tspan x="10" y="2602">  │ └─┬ minimatch@3.0.3 </tspan>
<tspan x="10" y="2618">  │   └─┬ brace-expansion@1.1.6 </tspan>
<tspan x="10" y="2634">  │     ├── balanced-match@0.4.2 </tspan>
<tspan x="10" y="2650">  │     └── concat-map@0.0.1 </tspan>
<tspan x="10" y="2666">  ├─┬ eslint-plugin-no-use-extend-native@0.3.12 </tspan>
<tspan x="10" y="2682">  │ ├─┬ is-get-set-prop@1.0.0 </tspan>
<tspan x="10" y="2698">  │ │ ├── get-set-props@0.1.0 </tspan>
<tspan x="10" y="2714">  │ │ └── lowercase-keys@1.0.0 </tspan>
<tspan x="10" y="2730">  │ ├─┬ is-js-type@2.0.0 </tspan>
<tspan x="10" y="2746">  │ │ └── js-types@1.0.0 </tspan>
<tspan x="10" y="2762">  │ ├─┬ is-obj-prop@1.0.0 </tspan>
<tspan x="10" y="2778">  │ │ └── obj-props@1.1.0 </tspan>
<tspan x="10" y="2794">  │ └─┬ is-proto-prop@1.0.0 </tspan>
<tspan x="10" y="2810">  │   └── proto-props@0.2.1 </tspan>
<tspan x="10" y="2826">  ├── eslint-plugin-promise@3.5.0 </tspan>
<tspan x="10" y="2842">  ├─┬ eslint-plugin-unicorn@2.1.1 </tspan>
<tspan x="10" y="2858">  │ ├── lodash.camelcase@4.3.0 </tspan>
<tspan x="10" y="2874">  │ ├── lodash.kebabcase@4.1.1 </tspan>
<tspan x="10" y="2890">  │ ├── lodash.snakecase@4.1.1 </tspan>
<tspan x="10" y="2906">  │ └── lodash.upperfirst@4.3.1 </tspan>
<tspan x="10" y="2922">  ├── get-stdin@5.0.1 </tspan>
<tspan x="10" y="2938">  ├─┬ globby@6.1.0 </tspan>
<tspan x="10" y="2954">  │ ├─┬ array-union@1.0.2 </tspan>
<tspan x="10" y="2970">  │ │ └── array-uniq@1.0.3 </tspan>
<tspan x="10" y="2986">  │ ├── object-assign@4.1.1 </tspan>
<tspan x="10" y="3002">  │ ├── pify@2.3.0 </tspan>
<tspan x="10" y="3018">  │ └─┬ pinkie-promise@2.0.1 </tspan>
<tspan x="10" y="3034">  │   └── pinkie@2.0.4 </tspan>
<tspan x="10" y="3050">  ├── has-flag@2.0.0 </tspan>
<tspan x="10" y="3066">  ├── lodash.isequal@4.5.0 </tspan>
<tspan x="10" y="3082">  ├─┬ meow@3.7.0 </tspan>
<tspan x="10" y="3098">  │ ├─┬ camelcase-keys@2.1.0 </tspan>
<tspan x="10" y="3114">  │ │ └── camelcase@2.1.1 </tspan>
<tspan x="10" y="3130">  │ ├── decamelize@1.2.0 </tspan>
<tspan x="10" y="3146">  │ ├─┬ loud-rejection@1.6.0 </tspan>
<tspan x="10" y="3162">  │ │ ├─┬ currently-unhandled@0.4.1 </tspan>
<tspan x="10" y="3178">  │ │ │ └── array-find-index@1.0.2 </tspan>
<tspan x="10" y="3194">  │ │ └── signal-exit@3.0.2 </tspan>
<tspan x="10" y="3210">  │ ├── map-obj@1.0.1 </tspan>
<tspan x="10" y="3226">  │ ├── minimist@1.2.0 </tspan>
<tspan x="10" y="3242">  │ ├─┬ normalize-package-data@2.3.6 </tspan>
<tspan x="10" y="3258">  │ │ ├── hosted-git-info@2.4.1 </tspan>
<tspan x="10" y="3274">  │ │ ├── is-builtin-module@1.0.0 </tspan>
<tspan x="10" y="3290">  │ │ ├── semver@5.3.0 </tspan>
<tspan x="10" y="3306">  │ │ └─┬ validate-npm-package-license@3.0.1 </tspan>
<tspan x="10" y="3322">  │ │   ├─┬ spdx-correct@1.0.2 </tspan>
<tspan x="10" y="3338">  │ │   │ └── spdx-license-ids@1.2.2 </tspan>
<tspan x="10" y="3354">  │ │   └── spdx-expression-parse@1.0.4 </tspan>
<tspan x="10" y="3370">  │ ├─┬ read-pkg-up@1.0.1 </tspan>
<tspan x="10" y="3386">  │ │ └─┬ read-pkg@1.1.0 </tspan>
<tspan x="10" y="3402">  │ │   ├─┬ load-json-file@1.1.0 </tspan>
<tspan x="10" y="3418">  │ │   │ └─┬ strip-bom@2.0.0 </tspan>
<tspan x="10" y="3434">  │ │   │   └── is-utf8@0.2.1 </tspan>
<tspan x="10" y="3450">  │ │   └── path-type@1.1.0 </tspan>
<tspan x="10" y="3466">  │ ├─┬ redent@1.0.0 </tspan>
<tspan x="10" y="3482">  │ │ ├─┬ indent-string@2.1.0 </tspan>
<tspan x="10" y="3498">  │ │ │ └─┬ repeating@2.0.1 </tspan>
<tspan x="10" y="3514">  │ │ │   └── is-finite@1.0.2 </tspan>
<tspan x="10" y="3530">  │ │ └─┬ strip-indent@1.0.1 </tspan>
<tspan x="10" y="3546">  │ │   └── get-stdin@4.0.1 </tspan>
<tspan x="10" y="3562">  │ └── trim-newlines@1.0.0 </tspan>
<tspan x="10" y="3578">  ├─┬ multimatch@2.1.0 </tspan>
<tspan x="10" y="3594">  │ └── array-differ@1.0.0 </tspan>
<tspan x="10" y="3610">  ├─┬ parse-gitignore@0.3.1 </tspan>
<tspan x="10" y="3626">  │ ├── array-unique@0.2.1 </tspan>
<tspan x="10" y="3642">  │ └─┬ is-glob@2.0.1 </tspan>
<tspan x="10" y="3658">  │   └── is-extglob@1.0.0 </tspan>
<tspan x="10" y="3674">  ├── path-exists@3.0.0 </tspan>
<tspan x="10" y="3690">  ├─┬ pkg-conf@2.0.0 </tspan>
<tspan x="10" y="3706">  │ ├─┬ find-up@2.1.0 </tspan>
<tspan x="10" y="3722">  │ │ └─┬ locate-path@2.0.0 </tspan>
<tspan x="10" y="3738">  │ │   └─┬ p-locate@2.0.0 </tspan>
<tspan x="10" y="3754">  │ │     └── p-limit@1.1.0 </tspan>
<tspan x="10" y="3770">  │ └─┬ load-json-file@2.0.0 </tspan>
<tspan x="10" y="3786">  │   ├── graceful-fs@4.1.11 </tspan>
<tspan x="10" y="3802">  │   └─┬ parse-json@2.2.0 </tspan>
<tspan x="10" y="3818">  │     └─┬ error-ex@1.3.1 </tspan>
<tspan x="10" y="3834">  │       └── is-arrayish@0.2.1 </tspan>
<tspan x="10" y="3850">  ├── resolve-cwd@1.0.0 </tspan>
<tspan x="10" y="3866">  ├── resolve-from@2.0.0 </tspan>
<tspan x="10" y="3882">  ├─┬ update-notifier@2.1.0 </tspan>
<tspan x="10" y="3898">  │ ├─┬ boxen@1.0.0 </tspan>
<tspan x="10" y="3914">  │ │ ├── ansi-align@1.1.0 </tspan>
<tspan x="10" y="3930">  │ │ ├── camelcase@4.1.0 </tspan>
<tspan x="10" y="3946">  │ │ ├── cli-boxes@1.0.0 </tspan>
<tspan x="10" y="3962">  │ │ ├─┬ string-width@2.0.0 </tspan>
<tspan x="10" y="3978">  │ │ │ └── is-fullwidth-code-point@2.0.0 </tspan>
<tspan x="10" y="3994">  │ │ ├─┬ term-size@0.1.1 </tspan>
<tspan x="10" y="4010">  │ │ │ └─┬ execa@0.4.0 </tspan>
<tspan x="10" y="4026">  │ │ │   ├── cross-spawn-async@2.2.5 </tspan>
<tspan x="10" y="4042">  │ │ │   ├── npm-run-path@1.0.0 </tspan>
<tspan x="10" y="4058">  │ │ │   └── path-key@1.0.0 </tspan>
<tspan x="10" y="4074">  │ │ └── widest-line@1.0.0 </tspan>
<tspan x="10" y="4090">  │ ├─┬ configstore@3.0.0 </tspan>
<tspan x="10" y="4106">  │ │ ├── dot-prop@4.1.1 </tspan>
<tspan x="10" y="4122">  │ │ ├─┬ unique-string@1.0.0 </tspan>
<tspan x="10" y="4138">  │ │ │ └── crypto-random-string@1.0.0 </tspan>
<tspan x="10" y="4154">  │ │ └─┬ write-file-atomic@1.3.1 </tspan>
<tspan x="10" y="4170">  │ │   └── slide@1.1.6 </tspan>
<tspan x="10" y="4186">  │ ├── is-npm@1.0.0 </tspan>
<tspan x="10" y="4202">  │ ├─┬ latest-version@3.1.0 </tspan>
<tspan x="10" y="4218">  │ │ └─┬ package-json@4.0.0 </tspan>
<tspan x="10" y="4234">  │ │   ├─┬ got@6.7.1 </tspan>
<tspan x="10" y="4250">  │ │   │ ├─┬ create-error-class@3.0.2 </tspan>
<tspan x="10" y="4266">  │ │   │ │ └── capture-stack-trace@1.0.0 </tspan>
<tspan x="10" y="4282">  │ │   │ ├── duplexer3@0.1.4 </tspan>
<tspan x="10" y="4298">  │ │   │ ├── get-stream@3.0.0 </tspan>
<tspan x="10" y="4314">  │ │   │ ├── is-redirect@1.0.0 </tspan>
<tspan x="10" y="4330">  │ │   │ ├── is-retry-allowed@1.1.0 </tspan>
<tspan x="10" y="4346">  │ │   │ ├── safe-buffer@5.0.1 </tspan>
<tspan x="10" y="4362">  │ │   │ ├── timed-out@4.0.1 </tspan>
<tspan x="10" y="4378">  │ │   │ ├── unzip-response@2.0.1 </tspan>
<tspan x="10" y="4394">  │ │   │ └─┬ url-parse-lax@1.0.0 </tspan>
<tspan x="10" y="4410">  │ │   │   └── prepend-http@1.0.4 </tspan>
<tspan x="10" y="4426">  │ │   ├─┬ registry-auth-token@3.1.0 </tspan>
<tspan x="10" y="4442">  │ │   │ └─┬ rc@1.2.1 </tspan>
<tspan x="10" y="4458">  │ │   │   ├── deep-extend@0.4.1 </tspan>
<tspan x="10" y="4474">  │ │   │   ├── ini@1.3.4 </tspan>
<tspan x="10" y="4490">  │ │   │   └── minimist@1.2.0 </tspan>
<tspan x="10" y="4506">  │ │   └── registry-url@3.1.0 </tspan>
<tspan x="10" y="4522">  │ ├── lazy-req@2.0.0 </tspan>
<tspan x="10" y="4538">  │ ├── semver-diff@2.1.0 </tspan>
<tspan x="10" y="4554">  │ └── xdg-basedir@3.0.0 </tspan>
<tspan x="10" y="4570">  └─┬ xo-init@0.5.0 </tspan>
<tspan x="10" y="4586">    ├─┬ execa@0.5.1 </tspan>
<tspan x="10" y="4602">    │ ├─┬ cross-spawn@4.0.2 </tspan>
<tspan x="10" y="4618">    │ │ ├─┬ lru-cache@4.0.2 </tspan>
<tspan x="10" y="4634">    │ │ │ ├── pseudomap@1.0.2 </tspan>
<tspan x="10" y="4650">    │ │ │ └── yallist@2.1.2 </tspan>
<tspan x="10" y="4666">    │ │ └─┬ which@1.2.14 </tspan>
<tspan x="10" y="4682">    │ │   └── isexe@2.0.0 </tspan>
<tspan x="10" y="4698">    │ ├── get-stream@2.3.1 </tspan>
<tspan x="10" y="4714">    │ ├── is-stream@1.1.0 </tspan>
<tspan x="10" y="4730">    │ ├─┬ npm-run-path@2.0.2 </tspan>
<tspan x="10" y="4746">    │ │ └── path-key@2.0.1 </tspan>
<tspan x="10" y="4762">    │ ├── p-finally@1.0.0 </tspan>
<tspan x="10" y="4778">    │ └── strip-eof@1.0.0 </tspan>
<tspan x="10" y="4794">    ├── minimist@1.2.0 </tspan>
<tspan x="10" y="4810">    ├─┬ read-pkg-up@2.0.0 </tspan>
<tspan x="10" y="4826">    │ ├── find-up@2.1.0 </tspan>
<tspan x="10" y="4842">    │ └─┬ read-pkg@2.0.0 </tspan>
<tspan x="10" y="4858">    │   ├── load-json-file@2.0.0 </tspan>
<tspan x="10" y="4874">    │   └── path-type@2.0.0 </tspan>
<tspan x="10" y="4890">    ├── the-argv@1.0.0 </tspan>
<tspan x="10" y="4906">    └─┬ write-pkg@2.1.0 </tspan>
<tspan x="10" y="4922">      ├─┬ sort-keys@1.1.2 </tspan>
<tspan x="10" y="4938">      │ └── is-plain-obj@1.1.0 </tspan>
<tspan x="10" y="4954">      └── write-json-file@2.0.0</tspan>
</text>
</svg>
